<?xml version="1.0" encoding="UTF-8"?><svg xmlns="http://www.w3.org/2000/svg" xmlns:xlink="http://www.w3.org/1999/xlink" fill-opacity="1" color-rendering="auto" color-interpolation="auto" text-rendering="auto" stroke="black" stroke-linecap="square" width="759" stroke-miterlimit="10" shape-rendering="auto" stroke-opacity="1" fill="black" stroke-dasharray="none" font-weight="normal" stroke-width="1" height="332" font-family="'Dialog'" font-style="normal" stroke-linejoin="miter" font-size="12px" stroke-dashoffset="0" image-rendering="auto">
  <!--Generated by ySVG 2.6-->
  <defs id="genericDefs"/>
  <g>
    <defs id="defs1">
      <linearGradient x1="489.2628" gradientUnits="userSpaceOnUse" x2="611.2628" y1="856.6393" y2="881.6393" id="linearGradient1" spreadMethod="reflect">
        <stop stop-opacity="1" stop-color="rgb(232,238,247)" offset="0%"/>
        <stop stop-opacity="1" stop-color="rgb(183,201,227)" offset="100%"/>
      </linearGradient>
      <linearGradient x1="76.8186" gradientUnits="userSpaceOnUse" x2="198.8186" y1="821.999" y2="846.999" id="linearGradient2" spreadMethod="reflect">
        <stop stop-opacity="1" stop-color="rgb(232,238,247)" offset="0%"/>
        <stop stop-opacity="1" stop-color="rgb(183,201,227)" offset="100%"/>
      </linearGradient>
      <linearGradient x1="358.7814" gradientUnits="userSpaceOnUse" x2="480.7814" y1="821.999" y2="846.999" id="linearGradient3" spreadMethod="reflect">
        <stop stop-opacity="1" stop-color="rgb(232,238,247)" offset="0%"/>
        <stop stop-opacity="1" stop-color="rgb(183,201,227)" offset="100%"/>
      </linearGradient>
      <linearGradient x1="-56.6628" gradientUnits="userSpaceOnUse" x2="65.3372" y1="856.6393" y2="881.6393" id="linearGradient4" spreadMethod="reflect">
        <stop stop-opacity="1" stop-color="rgb(232,238,247)" offset="0%"/>
        <stop stop-opacity="1" stop-color="rgb(183,201,227)" offset="100%"/>
      </linearGradient>
      <linearGradient x1="228.8186" gradientUnits="userSpaceOnUse" x2="350.8186" y1="856.6393" y2="881.6393" id="linearGradient5" spreadMethod="reflect">
        <stop stop-opacity="1" stop-color="rgb(232,238,247)" offset="0%"/>
        <stop stop-opacity="1" stop-color="rgb(183,201,227)" offset="100%"/>
      </linearGradient>
      <linearGradient x1="489.2628" gradientUnits="userSpaceOnUse" x2="611.2628" y1="927.7406" y2="952.7406" id="linearGradient6" spreadMethod="reflect">
        <stop stop-opacity="1" stop-color="rgb(232,238,247)" offset="0%"/>
        <stop stop-opacity="1" stop-color="rgb(183,201,227)" offset="100%"/>
      </linearGradient>
      <linearGradient x1="358.7814" gradientUnits="userSpaceOnUse" x2="480.7814" y1="927.7406" y2="952.7406" id="linearGradient7" spreadMethod="reflect">
        <stop stop-opacity="1" stop-color="rgb(232,238,247)" offset="0%"/>
        <stop stop-opacity="1" stop-color="rgb(183,201,227)" offset="100%"/>
      </linearGradient>
      <linearGradient x1="228.3" gradientUnits="userSpaceOnUse" x2="350.3" y1="927.7406" y2="952.7406" id="linearGradient8" spreadMethod="reflect">
        <stop stop-opacity="1" stop-color="rgb(232,238,247)" offset="0%"/>
        <stop stop-opacity="1" stop-color="rgb(183,201,227)" offset="100%"/>
      </linearGradient>
      <linearGradient x1="-56.6628" gradientUnits="userSpaceOnUse" x2="65.3372" y1="1046.8419" y2="1071.8419" id="linearGradient9" spreadMethod="reflect">
        <stop stop-opacity="1" stop-color="rgb(232,238,247)" offset="0%"/>
        <stop stop-opacity="1" stop-color="rgb(183,201,227)" offset="100%"/>
      </linearGradient>
      <linearGradient x1="84.5029" gradientUnits="userSpaceOnUse" x2="206.5029" y1="1046.8419" y2="1071.8419" id="linearGradient10" spreadMethod="reflect">
        <stop stop-opacity="1" stop-color="rgb(232,238,247)" offset="0%"/>
        <stop stop-opacity="1" stop-color="rgb(183,201,227)" offset="100%"/>
      </linearGradient>
      <linearGradient x1="14.0029" gradientUnits="userSpaceOnUse" x2="136.0029" y1="998.8419" y2="1023.8419" id="linearGradient11" spreadMethod="reflect">
        <stop stop-opacity="1" stop-color="rgb(232,238,247)" offset="0%"/>
        <stop stop-opacity="1" stop-color="rgb(183,201,227)" offset="100%"/>
      </linearGradient>
      <linearGradient x1="146.2686" gradientUnits="userSpaceOnUse" x2="268.2686" y1="998.8419" y2="1023.8419" id="linearGradient12" spreadMethod="reflect">
        <stop stop-opacity="1" stop-color="rgb(232,238,247)" offset="0%"/>
        <stop stop-opacity="1" stop-color="rgb(183,201,227)" offset="100%"/>
      </linearGradient>
      <linearGradient x1="358.7814" gradientUnits="userSpaceOnUse" x2="480.7814" y1="1046.8419" y2="1071.8419" id="linearGradient13" spreadMethod="reflect">
        <stop stop-opacity="1" stop-color="rgb(232,238,247)" offset="0%"/>
        <stop stop-opacity="1" stop-color="rgb(183,201,227)" offset="100%"/>
      </linearGradient>
      <linearGradient x1="489.2628" gradientUnits="userSpaceOnUse" x2="611.2628" y1="1046.8419" y2="1071.8419" id="linearGradient14" spreadMethod="reflect">
        <stop stop-opacity="1" stop-color="rgb(232,238,247)" offset="0%"/>
        <stop stop-opacity="1" stop-color="rgb(183,201,227)" offset="100%"/>
      </linearGradient>
      <linearGradient x1="228.3" gradientUnits="userSpaceOnUse" x2="350.3" y1="1046.8419" y2="1071.8419" id="linearGradient15" spreadMethod="reflect">
        <stop stop-opacity="1" stop-color="rgb(232,238,247)" offset="0%"/>
        <stop stop-opacity="1" stop-color="rgb(183,201,227)" offset="100%"/>
      </linearGradient>
      <linearGradient x1="272.4686" gradientUnits="userSpaceOnUse" x2="285.1314" y1="800.538" y2="810.538" id="linearGradient16" spreadMethod="reflect">
        <stop stop-opacity="1" stop-color="rgb(232,238,247)" offset="0%"/>
        <stop stop-opacity="1" stop-color="rgb(183,201,227)" offset="100%"/>
      </linearGradient>
      <linearGradient x1="463.1186" gradientUnits="userSpaceOnUse" x2="475.7814" y1="1006.3419" y2="1016.3419" id="linearGradient17" spreadMethod="reflect">
        <stop stop-opacity="1" stop-color="rgb(232,238,247)" offset="0%"/>
        <stop stop-opacity="1" stop-color="rgb(183,201,227)" offset="100%"/>
      </linearGradient>
      <clipPath clipPathUnits="userSpaceOnUse" id="clipPath1">
        <path d="M0 0 L759 0 L759 332 L0 332 L0 0 Z"/>
      </clipPath>
      <clipPath clipPathUnits="userSpaceOnUse" id="clipPath2">
        <path d="M-102 785 L657 785 L657 1117 L-102 1117 L-102 785 Z"/>
      </clipPath>
    </defs>
    <g fill="white" text-rendering="geometricPrecision" shape-rendering="geometricPrecision" transform="translate(102,-785)" stroke="white">
      <rect x="-102" width="759" height="332" y="785" clip-path="url(#clipPath2)" stroke="none"/>
    </g>
    <g id="y.node.0">
      <a target="_blank" xlink:type="simple" xlink:href="https://en.cppreference.com/w/cpp/types/is_reference" xlink:show="new">
        <g fill="url(#linearGradient1)" text-rendering="geometricPrecision" shape-rendering="geometricPrecision" transform="matrix(1,0,0,1,102,-785)" stroke="url(#linearGradient1)">
          <path d="M489.2628 856.6393 L611.2628 856.6393 L611.2628 881.6393 L489.2628 881.6393 Z" stroke="none"/>
        </g>
        <g text-rendering="geometricPrecision" stroke-miterlimit="1.45" shape-rendering="geometricPrecision" transform="matrix(1,0,0,1,102,-785)" stroke-linecap="butt">
          <path fill="none" d="M489.2628 856.6393 L611.2628 856.6393 L611.2628 881.6393 L489.2628 881.6393 Z"/>
        </g>
        <g>
          <g text-rendering="geometricPrecision" stroke-miterlimit="1.45" shape-rendering="geometricPrecision" font-family="sans-serif" transform="matrix(1,0,0,1,102,-785)" stroke-linecap="butt">
            <text x="513.5568" xml:space="preserve" y="873.2936" stroke="none">is_reference</text>
          </g>
        </g>
      </a>
    </g>
    <g id="y.node.1">
      <a target="_blank" xlink:type="simple" xlink:href="https://en.cppreference.com/w/cpp/types/is_fundamental" xlink:show="new">
        <g fill="url(#linearGradient2)" text-rendering="geometricPrecision" shape-rendering="geometricPrecision" transform="matrix(1,0,0,1,102,-785)" stroke="url(#linearGradient2)">
          <path d="M76.8186 821.999 L198.8186 821.999 L198.8186 846.999 L76.8186 846.999 Z" stroke="none"/>
        </g>
        <g text-rendering="geometricPrecision" stroke-miterlimit="1.45" shape-rendering="geometricPrecision" transform="matrix(1,0,0,1,102,-785)" stroke-linecap="butt">
          <path fill="none" d="M76.8186 821.999 L198.8186 821.999 L198.8186 846.999 L76.8186 846.999 Z"/>
        </g>
        <g>
          <g text-rendering="geometricPrecision" stroke-miterlimit="1.45" shape-rendering="geometricPrecision" font-family="sans-serif" transform="matrix(1,0,0,1,102,-785)" stroke-linecap="butt">
            <text x="91.7873" xml:space="preserve" y="838.6533" stroke="none">is_fundamental</text>
          </g>
        </g>
      </a>
    </g>
    <g id="y.node.2">
      <a target="_blank" xlink:type="simple" xlink:href="https://en.cppreference.com/w/cpp/types/is_compound" xlink:show="new">
        <g fill="url(#linearGradient3)" text-rendering="geometricPrecision" shape-rendering="geometricPrecision" transform="matrix(1,0,0,1,102,-785)" stroke="url(#linearGradient3)">
          <path d="M358.7814 821.999 L480.7814 821.999 L480.7814 846.999 L358.7814 846.999 Z" stroke="none"/>
        </g>
        <g text-rendering="geometricPrecision" stroke-miterlimit="1.45" shape-rendering="geometricPrecision" transform="matrix(1,0,0,1,102,-785)" stroke-linecap="butt">
          <path fill="none" d="M358.7814 821.999 L480.7814 821.999 L480.7814 846.999 L358.7814 846.999 Z"/>
        </g>
        <g>
          <g text-rendering="geometricPrecision" stroke-miterlimit="1.45" shape-rendering="geometricPrecision" font-family="sans-serif" transform="matrix(1,0,0,1,102,-785)" stroke-linecap="butt">
            <text x="380.2805" xml:space="preserve" y="838.6533" stroke="none">is_compound</text>
          </g>
        </g>
      </a>
    </g>
    <g id="y.node.3">
      <a target="_blank" xlink:type="simple" xlink:href="https://en.cppreference.com/w/cpp/types/is_void" xlink:show="new">
        <g fill="url(#linearGradient4)" text-rendering="geometricPrecision" shape-rendering="geometricPrecision" transform="matrix(1,0,0,1,102,-785)" stroke="url(#linearGradient4)">
          <path d="M-56.6628 856.6393 L65.3372 856.6393 L65.3372 881.6393 L-56.6628 881.6393 Z" stroke="none"/>
        </g>
        <g text-rendering="geometricPrecision" stroke-miterlimit="1.45" shape-rendering="geometricPrecision" transform="matrix(1,0,0,1,102,-785)" stroke-linecap="butt">
          <path fill="none" d="M-56.6628 856.6393 L65.3372 856.6393 L65.3372 881.6393 L-56.6628 881.6393 Z"/>
        </g>
        <g>
          <g text-rendering="geometricPrecision" stroke-miterlimit="1.45" shape-rendering="geometricPrecision" font-family="sans-serif" transform="matrix(1,0,0,1,102,-785)" stroke-linecap="butt">
            <text x="-16.1531" xml:space="preserve" y="873.2936" stroke="none">is_void</text>
          </g>
        </g>
      </a>
    </g>
    <g id="y.node.4">
      <a target="_blank" xlink:type="simple" xlink:href="https://en.cppreference.com/w/cpp/types/is_function" xlink:show="new">
        <g fill="url(#linearGradient5)" text-rendering="geometricPrecision" shape-rendering="geometricPrecision" transform="matrix(1,0,0,1,102,-785)" stroke="url(#linearGradient5)">
          <path d="M228.8186 856.6393 L350.8186 856.6393 L350.8186 881.6393 L228.8186 881.6393 Z" stroke="none"/>
        </g>
        <g text-rendering="geometricPrecision" stroke-miterlimit="1.45" shape-rendering="geometricPrecision" transform="matrix(1,0,0,1,102,-785)" stroke-linecap="butt">
          <path fill="none" d="M228.8186 856.6393 L350.8186 856.6393 L350.8186 881.6393 L228.8186 881.6393 Z"/>
        </g>
        <g>
          <g text-rendering="geometricPrecision" stroke-miterlimit="1.45" shape-rendering="geometricPrecision" font-family="sans-serif" transform="matrix(1,0,0,1,102,-785)" stroke-linecap="butt">
            <text x="257.5158" xml:space="preserve" y="873.2936" stroke="none">is_function</text>
          </g>
        </g>
      </a>
    </g>
    <g id="y.edge.4">
      <g text-rendering="geometricPrecision" stroke-miterlimit="1.45" shape-rendering="geometricPrecision" transform="matrix(1,0,0,1,102,-785)" stroke-linecap="butt">
        <path fill="none" d="M466.8962 847.007 L495.4334 854.5831"/>
      </g>
      <g text-rendering="geometricPrecision" stroke-miterlimit="1.45" shape-rendering="geometricPrecision" transform="matrix(1,0,0,1,102,-785)" stroke-linecap="butt">
        <path d="M503.1656 856.6359 L492.8503 848.7242 L494.4669 854.3265 L490.2844 858.3893 Z" stroke="none"/>
      </g>
    </g>
    <g id="y.edge.3">
      <g text-rendering="geometricPrecision" stroke-miterlimit="1.45" shape-rendering="geometricPrecision" transform="matrix(1,0,0,1,102,-785)" stroke-linecap="butt">
        <path fill="none" d="M89.6206 847.007 L60.2608 854.6263"/>
        <path d="M52.5173 856.6359 L65.3885 858.4612 L61.2287 854.3751 L62.8766 848.7819 Z" stroke="none"/>
      </g>
    </g>
    <g id="y.edge.8">
      <g text-rendering="geometricPrecision" stroke-miterlimit="1.45" shape-rendering="geometricPrecision" transform="matrix(1,0,0,1,102,-785)" stroke-linecap="butt">
        <path fill="none" d="M372.8539 847.007 L344.4588 854.5755"/>
        <path d="M336.7287 856.6359 L349.6116 858.3766 L345.4251 854.3179 L347.0361 848.714 Z" stroke="none"/>
      </g>
    </g>
    <g id="y.node.5">
      <a target="_blank" xlink:type="simple" xlink:href="https://en.cppreference.com/w/cpp/types/is_object" xlink:show="new">
        <g fill="rgb(245,245,245)" text-rendering="geometricPrecision" shape-rendering="geometricPrecision" transform="matrix(1,0,0,1,102,-785)" stroke="rgb(245,245,245)">
          <rect x="-86.6628" y="891.2796" width="727.9257" rx="4" ry="4" height="210.5622" stroke="none"/>
        </g>
        <g>
          <g fill="rgb(235,235,235)" text-rendering="geometricPrecision" shape-rendering="geometricPrecision" transform="matrix(1,0,0,1,102,-785)" stroke="rgb(235,235,235)">
            <rect x="-86.6628" width="727.9257" height="21.4609" y="891.2796" stroke="none"/>
          </g>
          <g font-size="15px" stroke-linecap="butt" transform="matrix(1,0,0,1,102,-785)" text-rendering="geometricPrecision" font-family="sans-serif" shape-rendering="geometricPrecision" stroke-miterlimit="1.45">
            <text x="573.5573" xml:space="preserve" y="907.203" stroke="none">is_object</text>
          </g>
        </g>
        <g text-rendering="geometricPrecision" stroke-miterlimit="1.45" stroke-dasharray="6,2" shape-rendering="geometricPrecision" transform="matrix(1,0,0,1,102,-785)" stroke-linecap="butt">
          <rect x="-86.6628" y="891.2796" fill="none" width="727.9257" rx="4" ry="4" height="210.5622"/>
        </g>
      </a>
    </g>
    <g id="y.node.6">
      <a target="_blank" xlink:type="simple" xlink:href="https://en.cppreference.com/w/cpp/types/is_array" xlink:show="new">
        <g fill="url(#linearGradient6)" text-rendering="geometricPrecision" shape-rendering="geometricPrecision" transform="matrix(1,0,0,1,102,-785)" stroke="url(#linearGradient6)">
          <path d="M489.2628 927.7406 L611.2628 927.7406 L611.2628 952.7406 L489.2628 952.7406 Z" stroke="none"/>
        </g>
        <g text-rendering="geometricPrecision" stroke-miterlimit="1.45" shape-rendering="geometricPrecision" transform="matrix(1,0,0,1,102,-785)" stroke-linecap="butt">
          <path fill="none" d="M489.2628 927.7406 L611.2628 927.7406 L611.2628 952.7406 L489.2628 952.7406 Z"/>
        </g>
        <g>
          <g text-rendering="geometricPrecision" stroke-miterlimit="1.45" shape-rendering="geometricPrecision" font-family="sans-serif" transform="matrix(1,0,0,1,102,-785)" stroke-linecap="butt">
            <text x="526.632" xml:space="preserve" y="944.3949" stroke="none">is_array</text>
          </g>
        </g>
      </a>
    </g>
    <g id="y.node.7">
      <a target="_blank" xlink:type="simple" xlink:href="https://en.cppreference.com/w/cpp/types/is_class" xlink:show="new">
        <g fill="url(#linearGradient7)" text-rendering="geometricPrecision" shape-rendering="geometricPrecision" transform="matrix(1,0,0,1,102,-785)" stroke="url(#linearGradient7)">
          <path d="M358.7814 927.7406 L480.7814 927.7406 L480.7814 952.7406 L358.7814 952.7406 Z" stroke="none"/>
        </g>
        <g text-rendering="geometricPrecision" stroke-miterlimit="1.45" shape-rendering="geometricPrecision" transform="matrix(1,0,0,1,102,-785)" stroke-linecap="butt">
          <path fill="none" d="M358.7814 927.7406 L480.7814 927.7406 L480.7814 952.7406 L358.7814 952.7406 Z"/>
        </g>
        <g>
          <g text-rendering="geometricPrecision" stroke-miterlimit="1.45" shape-rendering="geometricPrecision" font-family="sans-serif" transform="matrix(1,0,0,1,102,-785)" stroke-linecap="butt">
            <text x="397.0939" xml:space="preserve" y="944.3949" stroke="none">is_class</text>
          </g>
        </g>
      </a>
    </g>
    <g id="y.node.8">
      <a target="_blank" xlink:type="simple" xlink:href="https://en.cppreference.com/w/cpp/types/is_union" xlink:show="new">
        <g fill="url(#linearGradient8)" text-rendering="geometricPrecision" shape-rendering="geometricPrecision" transform="matrix(1,0,0,1,102,-785)" stroke="url(#linearGradient8)">
          <path d="M228.3 927.7406 L350.3 927.7406 L350.3 952.7406 L228.3 952.7406 Z" stroke="none"/>
        </g>
        <g text-rendering="geometricPrecision" stroke-miterlimit="1.45" shape-rendering="geometricPrecision" transform="matrix(1,0,0,1,102,-785)" stroke-linecap="butt">
          <path fill="none" d="M228.3 927.7406 L350.3 927.7406 L350.3 952.7406 L228.3 952.7406 Z"/>
        </g>
        <g>
          <g text-rendering="geometricPrecision" stroke-miterlimit="1.45" shape-rendering="geometricPrecision" font-family="sans-serif" transform="matrix(1,0,0,1,102,-785)" stroke-linecap="butt">
            <text x="264.7609" xml:space="preserve" y="944.3949" stroke="none">is_union</text>
          </g>
        </g>
      </a>
    </g>
    <g id="y.edge.7">
      <g text-rendering="geometricPrecision" stroke-miterlimit="1.45" shape-rendering="geometricPrecision" transform="matrix(1,0,0,1,102,-785)" stroke-linecap="butt">
        <path fill="none" d="M439.1656 847.0186 L543.7902 923.0146"/>
        <path d="M550.2628 927.7162 L543.4923 916.6185 L542.9811 922.4269 L537.6154 924.7093 Z" stroke="none"/>
      </g>
    </g>
    <g id="y.edge.10">
      <g text-rendering="geometricPrecision" stroke-miterlimit="1.45" shape-rendering="geometricPrecision" transform="matrix(1,0,0,1,102,-785)" stroke-linecap="butt">
        <path fill="none" d="M419.7814 847.0178 L419.7814 919.7304"/>
        <path d="M419.7814 927.7304 L424.7814 915.7304 L419.7814 918.7304 L414.7814 915.7304 Z" stroke="none"/>
      </g>
    </g>
    <g id="y.edge.11">
      <g text-rendering="geometricPrecision" stroke-miterlimit="1.45" shape-rendering="geometricPrecision" transform="matrix(1,0,0,1,102,-785)" stroke-linecap="butt">
        <path fill="none" d="M402.2926 846.9932 L295.8095 923.0657"/>
        <path d="M289.3 927.7162 L301.9707 924.809 L296.6232 922.4844 L296.1577 916.6721 Z" stroke="none"/>
      </g>
    </g>
    <g id="y.node.9">
      <a target="_blank" xlink:type="simple" xlink:href="https://en.cppreference.com/w/cpp/types/is_scalar" xlink:show="new">
        <g fill="rgb(225,225,225)" text-rendering="geometricPrecision" shape-rendering="geometricPrecision" transform="matrix(1,0,0,1,102,-785)" stroke="rgb(225,225,225)">
          <rect x="-71.6628" y="962.3809" width="697.9257" rx="4" ry="4" height="124.4609" stroke="none"/>
        </g>
        <g>
          <g fill="rgb(235,235,235)" text-rendering="geometricPrecision" shape-rendering="geometricPrecision" transform="matrix(1,0,0,1,102,-785)" stroke="rgb(235,235,235)">
            <rect x="-71.6628" width="697.9257" height="21.4609" y="962.3809" stroke="none"/>
          </g>
          <g font-size="15px" stroke-linecap="butt" transform="matrix(1,0,0,1,102,-785)" text-rendering="geometricPrecision" font-family="sans-serif" shape-rendering="geometricPrecision" stroke-miterlimit="1.45">
            <text x="560.0001" xml:space="preserve" y="978.3043" stroke="none">is_scalar</text>
          </g>
        </g>
        <g text-rendering="geometricPrecision" stroke-miterlimit="1.45" stroke-dasharray="6,2" shape-rendering="geometricPrecision" transform="matrix(1,0,0,1,102,-785)" stroke-linecap="butt">
          <rect x="-71.6628" y="962.3809" fill="none" width="697.9257" rx="4" ry="4" height="124.4609"/>
        </g>
      </a>
    </g>
    <g id="y.node.10">
      <a target="_blank" xlink:type="simple" xlink:href="https://en.cppreference.com/w/cpp/types/is_integral" xlink:show="new">
        <g fill="url(#linearGradient9)" text-rendering="geometricPrecision" shape-rendering="geometricPrecision" transform="matrix(1,0,0,1,102,-785)" stroke="url(#linearGradient9)">
          <path d="M-56.6628 1046.8419 L65.3372 1046.8419 L65.3372 1071.8419 L-56.6628 1071.8419 Z" stroke="none"/>
        </g>
        <g text-rendering="geometricPrecision" stroke-miterlimit="1.45" shape-rendering="geometricPrecision" transform="matrix(1,0,0,1,102,-785)" stroke-linecap="butt">
          <path fill="none" d="M-56.6628 1046.8419 L65.3372 1046.8419 L65.3372 1071.8419 L-56.6628 1071.8419 Z"/>
        </g>
        <g>
          <g text-rendering="geometricPrecision" stroke-miterlimit="1.45" shape-rendering="geometricPrecision" font-family="sans-serif" transform="matrix(1,0,0,1,102,-785)" stroke-linecap="butt">
            <text x="-26.5886" xml:space="preserve" y="1063.4962" stroke="none">is_integral</text>
          </g>
        </g>
      </a>
    </g>
    <g id="y.node.11">
      <a target="_blank" xlink:type="simple" xlink:href="https://en.cppreference.com/w/cpp/types/is_floating_point" xlink:show="new">
        <g fill="url(#linearGradient10)" text-rendering="geometricPrecision" shape-rendering="geometricPrecision" transform="matrix(1,0,0,1,102,-785)" stroke="url(#linearGradient10)">
          <path d="M84.5029 1046.8419 L206.5029 1046.8419 L206.5029 1071.8419 L84.5029 1071.8419 Z" stroke="none"/>
        </g>
        <g text-rendering="geometricPrecision" stroke-miterlimit="1.45" shape-rendering="geometricPrecision" transform="matrix(1,0,0,1,102,-785)" stroke-linecap="butt">
          <path fill="none" d="M84.5029 1046.8419 L206.5029 1046.8419 L206.5029 1071.8419 L84.5029 1071.8419 Z"/>
        </g>
        <g>
          <g text-rendering="geometricPrecision" stroke-miterlimit="1.45" shape-rendering="geometricPrecision" font-family="sans-serif" transform="matrix(1,0,0,1,102,-785)" stroke-linecap="butt">
            <text x="96.6503" xml:space="preserve" y="1063.4962" stroke="none">is_floating_point</text>
          </g>
        </g>
      </a>
    </g>
    <g id="y.node.12">
      <a target="_blank" xlink:type="simple" xlink:href="https://en.cppreference.com/w/cpp/types/is_arithmetic" xlink:show="new">
        <g fill="url(#linearGradient11)" text-rendering="geometricPrecision" shape-rendering="geometricPrecision" transform="matrix(1,0,0,1,102,-785)" stroke="url(#linearGradient11)">
          <path d="M14.0029 998.8419 L136.0029 998.8419 L136.0029 1023.8419 L14.0029 1023.8419 Z" stroke="none"/>
        </g>
        <g text-rendering="geometricPrecision" stroke-miterlimit="1.45" shape-rendering="geometricPrecision" transform="matrix(1,0,0,1,102,-785)" stroke-linecap="butt">
          <path fill="none" d="M14.0029 998.8419 L136.0029 998.8419 L136.0029 1023.8419 L14.0029 1023.8419 Z"/>
        </g>
        <g>
          <g text-rendering="geometricPrecision" stroke-miterlimit="1.45" shape-rendering="geometricPrecision" font-family="sans-serif" transform="matrix(1,0,0,1,102,-785)" stroke-linecap="butt">
            <text x="36.3896" xml:space="preserve" y="1015.4962" stroke="none">is_arithmetic</text>
          </g>
        </g>
      </a>
    </g>
    <g id="y.node.13">
      <a target="_blank" xlink:type="simple" xlink:href="https://en.cppreference.com/w/cpp/types/is_null_pointer" xlink:show="new">
        <g fill="url(#linearGradient12)" text-rendering="geometricPrecision" shape-rendering="geometricPrecision" transform="matrix(1,0,0,1,102,-785)" stroke="url(#linearGradient12)">
          <path d="M146.2686 998.8419 L268.2686 998.8419 L268.2686 1023.8419 L146.2686 1023.8419 Z" stroke="none"/>
        </g>
        <g text-rendering="geometricPrecision" stroke-miterlimit="1.45" shape-rendering="geometricPrecision" transform="matrix(1,0,0,1,102,-785)" stroke-linecap="butt">
          <path fill="none" d="M146.2686 998.8419 L268.2686 998.8419 L268.2686 1023.8419 L146.2686 1023.8419 Z"/>
        </g>
        <g>
          <g text-rendering="geometricPrecision" stroke-miterlimit="1.45" shape-rendering="geometricPrecision" font-family="sans-serif" transform="matrix(1,0,0,1,102,-785)" stroke-linecap="butt">
            <text x="164.0762" xml:space="preserve" y="1015.4962" stroke="none">is_null_pointer</text>
          </g>
        </g>
      </a>
    </g>
    <g id="y.node.14">
      <a target="_blank" xlink:type="simple" xlink:href="https://en.cppreference.com/w/cpp/types/is_member_pointer" xlink:show="new">
        <g fill="url(#linearGradient13)" text-rendering="geometricPrecision" shape-rendering="geometricPrecision" transform="matrix(1,0,0,1,102,-785)" stroke="url(#linearGradient13)">
          <path d="M358.7814 1046.8419 L480.7814 1046.8419 L480.7814 1071.8419 L358.7814 1071.8419 Z" stroke="none"/>
        </g>
        <g text-rendering="geometricPrecision" stroke-miterlimit="1.45" shape-rendering="geometricPrecision" transform="matrix(1,0,0,1,102,-785)" stroke-linecap="butt">
          <path fill="none" d="M358.7814 1046.8419 L480.7814 1046.8419 L480.7814 1071.8419 L358.7814 1071.8419 Z"/>
        </g>
        <g>
          <g text-rendering="geometricPrecision" stroke-miterlimit="1.45" shape-rendering="geometricPrecision" font-family="sans-serif" transform="matrix(1,0,0,1,102,-785)" stroke-linecap="butt">
            <text x="362.1808" xml:space="preserve" y="1063.4962" stroke="none">is_member_pointer</text>
          </g>
        </g>
      </a>
    </g>
    <g id="y.node.15">
      <a target="_blank" xlink:type="simple" xlink:href="https://en.cppreference.com/w/cpp/types/is_pointer" xlink:show="new">
        <g fill="url(#linearGradient14)" text-rendering="geometricPrecision" shape-rendering="geometricPrecision" transform="matrix(1,0,0,1,102,-785)" stroke="url(#linearGradient14)">
          <path d="M489.2628 1046.8419 L611.2628 1046.8419 L611.2628 1071.8419 L489.2628 1071.8419 Z" stroke="none"/>
        </g>
        <g text-rendering="geometricPrecision" stroke-miterlimit="1.45" shape-rendering="geometricPrecision" transform="matrix(1,0,0,1,102,-785)" stroke-linecap="butt">
          <path fill="none" d="M489.2628 1046.8419 L611.2628 1046.8419 L611.2628 1071.8419 L489.2628 1071.8419 Z"/>
        </g>
        <g>
          <g text-rendering="geometricPrecision" stroke-miterlimit="1.45" shape-rendering="geometricPrecision" font-family="sans-serif" transform="matrix(1,0,0,1,102,-785)" stroke-linecap="butt">
            <text x="521.0099" xml:space="preserve" y="1063.4962" stroke="none">is_pointer</text>
          </g>
        </g>
      </a>
    </g>
    <g id="y.node.16">
      <a target="_blank" xlink:type="simple" xlink:href="https://en.cppreference.com/w/cpp/types/is_enum" xlink:show="new">
        <g fill="url(#linearGradient15)" text-rendering="geometricPrecision" shape-rendering="geometricPrecision" transform="matrix(1,0,0,1,102,-785)" stroke="url(#linearGradient15)">
          <path d="M228.3 1046.8419 L350.3 1046.8419 L350.3 1071.8419 L228.3 1071.8419 Z" stroke="none"/>
        </g>
        <g text-rendering="geometricPrecision" stroke-miterlimit="1.45" shape-rendering="geometricPrecision" transform="matrix(1,0,0,1,102,-785)" stroke-linecap="butt">
          <path fill="none" d="M228.3 1046.8419 L350.3 1046.8419 L350.3 1071.8419 L228.3 1071.8419 Z"/>
        </g>
        <g>
          <g text-rendering="geometricPrecision" stroke-miterlimit="1.45" shape-rendering="geometricPrecision" font-family="sans-serif" transform="matrix(1,0,0,1,102,-785)" stroke-linecap="butt">
            <text x="264.3654" xml:space="preserve" y="1063.4962" stroke="none">is_enum</text>
          </g>
        </g>
      </a>
    </g>
    <g id="y.node.17">
      <g fill="url(#linearGradient16)" text-rendering="geometricPrecision" shape-rendering="geometricPrecision" transform="matrix(1,0,0,1,102,-785)" stroke="url(#linearGradient16)">
        <circle r="5" cx="278.8" cy="805.538" stroke="none"/>
      </g>
      <g text-rendering="geometricPrecision" stroke-miterlimit="1.45" shape-rendering="geometricPrecision" transform="matrix(1,0,0,1,102,-785)" stroke-linecap="butt">
        <circle fill="none" r="5" cx="278.8" cy="805.538"/>
      </g>
      <g/>
    </g>
    <g id="y.node.18">
      <g fill="url(#linearGradient17)" text-rendering="geometricPrecision" shape-rendering="geometricPrecision" transform="matrix(1,0,0,1,102,-785)" stroke="url(#linearGradient17)">
        <circle r="5" cx="469.45" cy="1011.3419" stroke="none"/>
      </g>
      <g text-rendering="geometricPrecision" stroke-miterlimit="1.45" shape-rendering="geometricPrecision" transform="matrix(1,0,0,1,102,-785)" stroke-linecap="butt">
        <circle fill="none" r="5" cx="469.45" cy="1011.3419"/>
      </g>
      <g/>
    </g>
    <g id="y.edge.2">
      <g text-rendering="geometricPrecision" stroke-miterlimit="1.45" shape-rendering="geometricPrecision" transform="matrix(1,0,0,1,102,-785)" stroke-linecap="butt">
        <path fill="none" d="M133.3865 846.9764 L82.1135 991.3234"/>
        <path d="M79.4358 998.862 L88.164 989.2278 L82.4483 990.3811 L78.7408 985.8806 Z" stroke="none"/>
      </g>
    </g>
    <g id="y.edge.13"/>
    <g id="y.edge.15">
      <g text-rendering="geometricPrecision" stroke-miterlimit="1.45" shape-rendering="geometricPrecision" transform="matrix(1,0,0,1,102,-785)" stroke-linecap="butt">
        <path fill="none" d="M93.3508 1023.834 L120.5299 1042.339"/>
        <path d="M127.1427 1046.8413 L120.0374 1035.9548 L119.7033 1041.7762 L114.4095 1044.2208 Z" stroke="none"/>
      </g>
    </g>
    <g id="y.edge.14">
      <g text-rendering="geometricPrecision" stroke-miterlimit="1.45" shape-rendering="geometricPrecision" transform="matrix(1,0,0,1,102,-785)" stroke-linecap="butt">
        <path fill="none" d="M56.6118 1023.834 L29.3582 1042.3462"/>
        <path d="M22.7405 1046.8413 L35.4765 1044.2347 L30.1854 1041.7843 L29.8576 1035.9625 Z" stroke="none"/>
      </g>
    </g>
    <g id="y.edge.12">
      <g text-rendering="geometricPrecision" stroke-miterlimit="1.45" shape-rendering="geometricPrecision" transform="matrix(1,0,0,1,102,-785)" stroke-linecap="butt">
        <path fill="none" d="M143.2613 847.0026 L199.5052 991.4094"/>
        <path d="M202.4087 998.864 L202.7126 985.8675 L199.1423 990.4776 L193.3944 989.4968 Z" stroke="none"/>
      </g>
    </g>
    <g id="y.edge.1">
      <g text-rendering="geometricPrecision" stroke-miterlimit="1.45" shape-rendering="geometricPrecision" transform="matrix(1,0,0,1,102,-785)" stroke-linecap="butt">
        <path fill="none" d="M283.722 806.5491 L351.1236 820.395"/>
        <path d="M358.9599 822.0048 L348.2115 814.6924 L350.144 820.1938 L346.1993 824.4879 Z" stroke="none"/>
      </g>
    </g>
    <g id="y.edge.0">
      <g text-rendering="geometricPrecision" stroke-miterlimit="1.45" shape-rendering="geometricPrecision" transform="matrix(1,0,0,1,102,-785)" stroke-linecap="butt">
        <path fill="none" d="M273.8781 806.5491 L206.4764 820.395"/>
        <path d="M198.6401 822.0048 L211.4007 824.4879 L207.456 820.1938 L209.3885 814.6924 Z" stroke="none"/>
      </g>
    </g>
    <g id="y.edge.16">
      <g text-rendering="geometricPrecision" stroke-miterlimit="1.45" shape-rendering="geometricPrecision" transform="matrix(1,0,0,1,102,-785)" stroke-linecap="butt">
        <path fill="none" d="M423.2859 846.9764 L465.9456 998.8646"/>
        <path d="M468.1088 1006.5666 L469.6778 993.6616 L465.6752 997.9019 L460.0503 996.3656 Z" stroke="none"/>
      </g>
    </g>
    <g id="y.edge.6">
      <g text-rendering="geometricPrecision" stroke-miterlimit="1.45" shape-rendering="geometricPrecision" transform="matrix(1,0,0,1,102,-785)" stroke-linecap="butt">
        <path fill="none" d="M474.0667 1013.3685 L542.9376 1043.6018"/>
        <path d="M550.2628 1046.8175 L541.2847 1037.4156 L542.0219 1043.1998 L537.2651 1046.5723 Z" stroke="none"/>
      </g>
    </g>
    <g id="y.edge.5">
      <g text-rendering="geometricPrecision" stroke-miterlimit="1.45" shape-rendering="geometricPrecision" transform="matrix(1,0,0,1,102,-785)" stroke-linecap="butt">
        <path fill="none" d="M465.3999 1014.2347 L426.2914 1042.1677"/>
        <path d="M419.7814 1046.8175 L432.4525 1043.9116 L427.1051 1041.5865 L426.6403 1035.7742 Z" stroke="none"/>
      </g>
    </g>
    <g id="y.edge.9">
      <g text-rendering="geometricPrecision" stroke-miterlimit="1.45" shape-rendering="geometricPrecision" transform="matrix(1,0,0,1,102,-785)" stroke-linecap="butt">
        <path fill="none" d="M464.568 1012.3032 L297.1493 1045.2717"/>
        <path d="M289.3 1046.8175 L302.04 1049.4047 L298.1304 1045.0785 L300.1078 1039.593 Z" stroke="none"/>
      </g>
    </g>
  </g>
</svg>
